<svg width="14" height="14" viewBox="0 0 14 14" fill="none" xmlns="http://www.w3.org/2000/svg">
<path d="M11.6667 2.33331H2.33335C1.68994 2.33331 1.16669 2.85656 1.16669 3.49998V10.5C1.16669 11.1434 1.68994 11.6666 2.33335 11.6666H11.6667C12.3101 11.6666 12.8334 11.1434 12.8334 10.5V3.49998C12.8334 2.85656 12.3101 2.33331 11.6667 2.33331ZM7.29169 9.33331C6.90491 9.33331 6.53398 9.17967 6.26049 8.90618C5.987 8.63269 5.83335 8.26175 5.83335 7.87498C5.83335 7.4882 5.987 7.11727 6.26049 6.84378C6.53398 6.57029 6.90491 6.41665 7.29169 6.41665C7.60824 6.41738 7.91575 6.52234 8.16669 6.71531C7.81435 6.98131 7.58335 7.39956 7.58335 7.87498C7.58335 8.3504 7.81435 8.76865 8.16669 9.03465C7.91575 9.22762 7.60824 9.33258 7.29169 9.33331V9.33331ZM9.62502 9.33331C9.23825 9.33331 8.86731 9.17967 8.59382 8.90618C8.32033 8.63269 8.16669 8.26175 8.16669 7.87498C8.16669 7.4882 8.32033 7.11727 8.59382 6.84378C8.86731 6.57029 9.23825 6.41665 9.62502 6.41665C10.0118 6.41665 10.3827 6.57029 10.6562 6.84378C10.9297 7.11727 11.0834 7.4882 11.0834 7.87498C11.0834 8.26175 10.9297 8.63269 10.6562 8.90618C10.3827 9.17967 10.0118 9.33331 9.62502 9.33331Z" fill="black"/>
</svg>
