<svg width="14" height="14" viewBox="0 0 14 14" fill="none" xmlns="http://www.w3.org/2000/svg">
<path d="M7 13.125C10.3827 13.125 13.125 10.3827 13.125 7C13.125 3.61726 10.3827 0.875 7 0.875C3.61726 0.875 0.875 3.61726 0.875 7C0.875 10.3827 3.61726 13.125 7 13.125Z" fill="#2196F3"/>
<path d="M6.41669 6.41669H7.58335V9.62502H6.41669V6.41669Z" fill="white"/>
<path d="M6.99998 5.54165C7.40269 5.54165 7.72915 5.21519 7.72915 4.81248C7.72915 4.40977 7.40269 4.08331 6.99998 4.08331C6.59727 4.08331 6.27081 4.40977 6.27081 4.81248C6.27081 5.21519 6.59727 5.54165 6.99998 5.54165Z" fill="white"/>
</svg>
